<?xml version="1.0" encoding="UTF-8"?>
<svg xmlns="http://www.w3.org/2000/svg" width="108" height="60" viewBox="0 0 108 60" fill="none">
  <path d="M24.4578 0H35.9709C36.3683 -5.62751e-07 36.7591 0.0977478 37.1067 0.284066C37.4543 0.470384 37.7473 0.739158 37.9582 1.06515L44.8088 11.689C45.0423 12.05 45.1661 12.4672 45.1661 12.8931C45.1661 13.319 45.0423 13.7363 44.8088 14.0973L39.1844 22.7934C38.9739 23.1188 38.6815 23.3873 38.3346 23.5736C37.9877 23.7599 37.5977 23.8579 37.201 23.8585C36.8042 23.8591 36.4139 23.7623 36.0664 23.5771C35.7188 23.3919 35.4256 23.1244 35.214 22.7996L22.4746 3.47968C22.251 3.13638 22.1265 2.74131 22.1143 2.33563C22.102 1.92996 22.2024 1.52853 22.4049 1.17317C22.6075 0.817805 22.9047 0.521518 23.2658 0.315179C23.6269 0.10884 24.0385 -2.00504e-07 24.4578 0Z" fill="#27AAE1"></path>
  <path d="M44.7075 2.26979e-05L51.3656 0C51.6168 5.60547e-07 51.8634 0.0651045 52.0798 0.188548C52.2962 0.311992 52.4745 0.489272 52.5962 0.701971C52.7179 0.91467 52.7785 1.15503 52.7718 1.39807C52.7651 1.64112 52.6912 1.87799 52.5579 2.08407L49.3022 7.13019C49.1758 7.32563 49.0002 7.48679 48.7919 7.59858C48.5835 7.71036 48.3493 7.7691 48.111 7.76928C47.8728 7.76947 47.6385 7.7111 47.4299 7.59964C47.2214 7.48819 47.0455 7.3273 46.9188 7.13206L43.5164 2.08597C42.7717 0.938685 43.3077 2.26979e-05 44.7075 2.26979e-05Z" fill="#F7DA00"></path>
  <path d="M21.5524 12.5471C21.3959 11.6162 21.0374 10.728 20.5005 9.941C16.8954 4.52981 15.067 1.6185 15.067 1.6185C14.7401 1.12241 14.2893 0.714061 13.7562 0.431178C13.2232 0.148295 12.6251 2.05462e-06 12.0172 0H2.48809C0.307831 0 -0.61672 1.5131 0.43351 3.36244C0.43351 3.36244 1.3467 4.89243 10.566 18.9184C11.296 20.0291 14.395 24.7244 16.6387 28.1232C18.4277 25.4056 22.7074 18.2339 21.5524 12.5471Z" fill="#BB281D"></path>
  <path d="M0.431568 56.1027C0.235323 56.4483 0.135484 56.8373 0.141892 57.2316C0.148299 57.6259 0.260731 58.0117 0.468107 58.3511C0.675483 58.6905 0.970646 58.9717 1.32451 59.1671C1.67837 59.3624 2.07871 59.4652 2.48609 59.4652H14.1897C14.5871 59.4652 14.9779 59.3675 15.3255 59.1811C15.6731 58.9948 15.9661 58.726 16.177 58.4L29.2106 37.4264C30.5139 35.3599 34.2784 30.705 31.6442 26.7482C27.6996 20.8229 23.5346 14.3229 23.5721 14.5633C24.5524 20.8559 17.8604 30.0782 17.8604 30.0782L0.431568 56.1027Z" fill="#E52726"></path>
  <path d="M81.2682 3.84743C78.4268 1.32571 74.9962 0.0646832 70.9764 0.0643616C66.9432 0.0643616 63.5061 1.32539 60.6651 3.84743C57.745 6.44576 56.285 9.70295 56.2852 13.619C56.2852 17.5228 57.7451 20.78 60.6651 23.3906C63.5061 25.9254 66.9432 27.1927 70.9764 27.1925C74.996 27.1925 78.4266 25.9252 81.2682 23.3906C84.188 20.7797 85.648 17.5225 85.6481 13.619C85.6481 9.70274 84.1881 6.44555 81.2682 3.84743ZM76.2796 18.885C74.97 20.3298 73.2023 21.0522 70.9764 21.0521C68.7374 21.0521 66.9632 20.3297 65.6537 18.885C64.3968 17.529 63.7683 15.7737 63.7681 13.619C63.7681 11.4646 64.3967 9.70921 65.6537 8.353C66.963 6.93379 68.7373 6.22404 70.9764 6.22373C73.2023 6.22373 74.97 6.93349 76.2796 8.353C77.5364 9.70924 78.1649 11.4646 78.1651 13.619C78.1651 15.7737 77.5366 17.529 76.2796 18.885Z" fill="#E52726"></path>
  <path d="M41.0677 59.4851C40.5249 59.4851 40.0849 59.0451 40.0849 58.5023V33.5518C40.0849 33.009 40.5249 32.569 41.0677 32.569H54.0515C54.5943 32.569 55.0344 33.009 55.0344 33.5518V37.6227C55.0344 38.1655 54.5943 38.6056 54.0515 38.6056H47.6547C47.1119 38.6056 46.6719 39.0456 46.6719 39.5884V41.8128C46.6719 42.3557 47.1119 42.7957 47.6547 42.7957H54.0515C54.5943 42.7957 55.0344 43.2357 55.0344 43.7785V47.8494C55.0344 48.3923 54.5943 48.8323 54.0515 48.8323H47.6547C47.1119 48.8323 46.6719 49.2723 46.6719 49.8151V52.4657C46.6719 53.0085 47.1119 53.4485 47.6547 53.4485H54.0515C54.5943 53.4485 55.0344 53.8886 55.0344 54.4314V58.5023C55.0344 59.0451 54.5943 59.4851 54.0515 59.4851H41.0677Z" fill="#BB281D"></path>
  <path d="M82.5508 45.956C82.5508 54.9754 77.9287 59.4851 68.6844 59.4851H60.2573C59.7145 59.4851 59.2744 59.0451 59.2744 58.5023V33.5518C59.2744 33.009 59.7145 32.569 60.2573 32.569H68.1873C69.513 32.569 70.6729 32.6341 71.6672 32.7643C72.8272 32.9182 73.8747 33.1667 74.8098 33.51C76.9048 34.2675 78.6566 35.6287 80.0652 37.5936C81.7223 39.8898 82.5508 42.6773 82.5508 45.956ZM75.6798 46.0626C75.6798 43.8018 75.159 42.0263 74.1173 40.7361C72.981 39.3158 71.318 38.6056 69.1283 38.6056H67.1283C66.5855 38.6056 66.1455 39.0456 66.1455 39.5884V52.4657C66.1455 53.0085 66.5855 53.4485 67.1283 53.4485H69.0928C71.3417 53.4485 73.0225 52.762 74.1351 51.389C75.1649 50.1343 75.6798 48.3588 75.6798 46.0626Z" fill="#BB281D"></path>
  <path d="M107.481 48.8323C107.481 50.6669 107.327 52.1524 107.019 53.2887C106.605 54.7446 105.865 56.0111 104.8 57.0882C102.894 59.0294 100.385 60 97.2718 60C95.7567 60 94.36 59.781 93.0817 59.3431C91.6376 58.8459 90.454 58.1062 89.5307 57.1237C88.3944 55.9283 87.6369 54.6499 87.2581 53.2887C87.0924 52.6732 86.9741 51.9808 86.9031 51.2114C86.8557 50.5959 86.832 49.8029 86.832 48.8323V33.5518C86.832 33.009 87.2721 32.569 87.8149 32.569H92.7203C93.2631 32.569 93.7031 33.009 93.7031 33.5518V48.8323C93.7031 49.5425 93.7386 50.1521 93.8096 50.661C93.9043 51.312 94.0641 51.8624 94.289 52.3122C94.8335 53.413 95.8041 53.9634 97.2008 53.9634C98.6448 53.9634 99.6154 53.4248 100.113 52.3477C100.314 51.9098 100.456 51.3653 100.539 50.7143C100.586 50.2408 100.61 49.6135 100.61 48.8323V33.5518C100.61 33.009 101.05 32.569 101.593 32.569H106.498C107.041 32.569 107.481 33.009 107.481 33.5518V48.8323Z" fill="#BB281D"></path>
</svg>
